<svg width="512" height="512" viewBox="0 0 512 512" fill="none" xmlns="http://www.w3.org/2000/svg">
<path fill-rule="evenodd" clip-rule="evenodd" d="M252.764 1.75C251.602 3.065 251.111 6.608 250.791 16C250.406 27.273 250.088 29.04 247.551 34C238.705 51.297 204.404 72.717 165.324 85.351C147.813 91.012 135.24 93.297 121 93.405C103.859 93.535 100.265 92.219 89.48 81.865C81.228 73.944 77.975 72.425 75.2 75.2C72.341 78.059 73.885 81.436 81.52 89.019C91.87 99.301 93.326 103.186 93.315 120.5C93.309 130.054 92.721 136.283 91.096 144C81.618 189.019 56.033 235.293 33.86 247.517C28.874 250.266 27.627 250.498 16 250.832C2.982 251.207 0 252.17 0 256C0 259.823 2.988 260.792 16 261.192C27.14 261.535 29.044 261.863 33.5 264.205C62.011 279.193 96 348.076 96 390.869C96 406.283 94.593 409.652 83.389 421.059C73.903 430.718 72.265 433.865 75.2 436.8C78.066 439.666 81.232 438.069 90.548 429.057C95.633 424.138 101.527 419.357 103.647 418.432C109.452 415.899 126.316 415.407 138 417.43C173.936 423.654 215.957 443.926 237.563 465.463C248.701 476.566 250.225 480.087 250.781 496C251.234 508.993 252.215 512 256 512C259.788 512 260.766 508.996 261.209 496C261.594 484.727 261.912 482.96 264.449 478C273.295 460.703 307.596 439.283 346.676 426.649C364.187 420.988 376.76 418.703 391 418.595C408.141 418.465 411.735 419.781 422.52 430.135C430.772 438.056 434.025 439.575 436.8 436.8C439.615 433.985 438.077 430.716 430.09 422.533C420.164 412.363 418.548 407.988 418.626 391.5C418.838 347.121 450.389 279.782 478.14 264.483C483.126 261.734 484.373 261.502 496 261.168C509.018 260.793 512 259.83 512 256C512 252.177 509.012 251.208 496 250.808C484.658 250.459 482.999 250.163 478.093 247.615C460.791 238.63 438.164 204.424 425.692 168.4C418.743 148.329 416.514 136.938 416.514 121.5C416.515 104.726 417.782 101.657 429.544 89.956C438.126 81.419 439.739 78.139 436.8 75.2C433.82 72.22 430.591 73.866 421.492 83.008C409.683 94.872 407.959 95.529 389 95.404C375.718 95.317 373.355 95.007 360.86 91.712C326.632 82.685 292.777 64.999 274.469 46.58C263.308 35.351 261.771 31.805 261.219 16C260.766 3.007 259.785 0 256 0C255.07 0 253.614 0.788 252.764 1.75ZM250.978 71.75C250.953 98.151 250.671 99.276 241.932 107.878C222.306 127.197 172.656 144.904 151.886 139.991C146.8 138.788 145.525 137.75 129 121.374L111.5 104.031L121.699 104.016C148.943 103.974 189.444 90.82 221.86 71.486C230.658 66.239 247.423 52.945 248.377 50.46C248.685 49.657 249.401 49 249.969 49C250.648 49 250.992 56.774 250.978 71.75ZM279.815 65.236C309.402 87.454 352.969 104.2 387.5 106.627L397.17 107.307L381.335 123.256C372.626 132.028 363.953 139.875 362.063 140.694C359.866 141.646 355.535 142.167 350.063 142.138C320.745 141.981 272.94 118.568 263.578 99.781C261.032 94.671 261 94.324 261 71.585V48.563L266.75 54.153C269.913 57.227 275.792 62.214 279.815 65.236ZM138.505 147.652C145.45 162.286 135.151 202.697 117.711 229.242C111.817 238.214 104.497 246.12 99.6 248.802C96.981 250.236 92.796 250.549 72.636 250.816L48.773 251.133L55.743 243.223C82.027 213.395 103.839 158.618 104.16 121.634L104.245 111.768L120.621 128.121C129.628 137.116 137.676 145.904 138.505 147.652ZM251 143.671V172.343L246.568 176.589C237.789 185.001 214.478 193.878 204.206 192.72C199.936 192.238 198.84 191.322 179.867 172.367C168.94 161.451 160 152.177 160 151.759C160 151.342 162.363 150.993 165.25 150.984C186.155 150.922 225.983 135.212 244.993 119.531C248.014 117.039 250.602 115 250.743 115C250.884 115 251 127.902 251 143.671ZM281.5 130.234C302.065 142.391 324.946 150.545 344.788 152.789L351.077 153.5L330.589 173.893L310.101 194.287L303.411 193.601C290.708 192.3 274.027 184.825 265.419 176.577L261 172.343V143.602V114.861L268.25 120.775C272.238 124.027 278.2 128.284 281.5 130.234ZM406.084 131.5C408.783 156.544 420.031 188.4 435.743 215.5C443.106 228.199 448.839 235.95 457.378 244.75L463.442 251L440.971 250.956C425.057 250.925 417.428 250.529 414.825 249.6C395.678 242.761 370 192.677 370 162.167C370 149.653 369.744 150.089 387.906 131.674C404.385 114.964 404.502 114.87 404.753 118.174C404.892 120.003 405.491 126 406.084 131.5ZM172.782 180.306L193 200.611V205.146C193 215.32 186.276 234.039 179.145 243.714C173.745 251.041 173.616 251.066 142.295 250.766L114.552 250.5L118.113 246.5C134.279 228.338 151 186.844 151 164.89C151 162.2 151.352 160 151.782 160C152.212 160 161.662 169.138 172.782 180.306ZM363.04 186.979C368.835 208.39 380.253 230.941 392.796 245.75L397.243 251H368.422H339.602L334.947 246.042C326.376 236.913 318.745 218.827 318.586 207.266L318.5 201.029L338.5 180.996L358.5 160.964L359.752 170.211C360.441 175.296 361.92 182.842 363.04 186.979ZM251 215.741V243.481L231.002 223.502L211.004 203.523L218.075 201.785C226.955 199.602 240.401 194.158 245.542 190.665C247.699 189.199 249.81 188 250.232 188C250.654 188 251 200.483 251 215.741ZM266.632 191.091C272.951 195.438 283.018 199.831 291.826 202.083C295.957 203.14 299.47 204.137 299.632 204.299C299.794 204.461 291.168 213.343 280.463 224.037L261 243.481V215.74C261 200.483 261.256 188 261.57 188C261.883 188 264.161 189.391 266.632 191.091ZM215.86 250.766C200.922 250.913 188.496 250.83 188.248 250.582C188 250.333 189.416 247.507 191.395 244.301C195.822 237.129 200.439 225.342 202.071 217.045L203.297 210.815L223.158 230.658L243.02 250.5L215.86 250.766ZM309.816 220C312.275 229.032 316.844 239.46 320.97 245.456C322.636 247.878 324 250.117 324 250.43C324 250.744 311.517 251 296.26 251H268.519L287.963 231.537C298.657 220.832 307.49 212.17 307.59 212.287C307.691 212.404 308.693 215.875 309.816 220ZM99.938 263.373C114.969 271.561 133.623 304.212 140.546 334.451C142.463 342.828 142.778 356.183 141.172 361.01C140.373 363.41 134.789 369.726 123.502 380.998L107 397.477L106.996 390.489C106.982 366.451 94.43 327.501 77.03 297.5C69.82 285.07 63.822 276.871 55.615 268.231L48.618 260.866L72.559 261.183C93.693 261.463 96.903 261.72 99.938 263.373ZM176.936 265.75C185.411 274.564 193.363 293.334 193.452 304.738L193.5 310.976L173.511 330.987L153.521 350.997L152.341 341.599C149.136 316.075 135.884 285.943 119.204 266.25L114.757 261H143.562H172.368L176.936 265.75ZM223.99 280.524L204.5 300.048L203.64 296.774C200.121 283.385 196.27 274.204 190.865 266.32C189.289 264.021 188 261.883 188 261.57C188 261.256 200.483 261 215.74 261H243.481L223.99 280.524ZM323.996 261.75C323.993 262.163 322.64 264.525 320.987 267C317.294 272.531 312.229 285.211 310.095 294.266L308.5 301.033L288.509 281.016L268.519 261H296.259C311.517 261 323.998 261.337 323.996 261.75ZM396.09 262.832C395.55 263.84 394.356 265.289 393.436 266.053C390.459 268.524 382.112 281.675 376.89 292.124C368.303 309.303 361 334.575 361 347.11C361 349.8 360.648 352 360.218 352C359.788 352 350.338 342.862 339.218 331.694L319 311.389V306.854C319 292.849 329.915 268.072 338.35 262.928C341.257 261.156 343.646 261.007 369.285 261.004C395.913 261 397.03 261.076 396.09 262.832ZM456.199 268.843C429.948 298.634 408.055 353.788 407.915 390.485L407.876 400.47L390.556 382.985C373.444 365.711 373.22 365.429 372.015 359.595C367.72 338.818 383.278 293.466 401.893 272.5C411.659 261.501 413.024 261.099 440.805 261.044L463.11 261L456.199 268.843ZM250.631 323.703C250.41 323.924 247.43 322.295 244.009 320.084C237.336 315.772 225.826 311.022 217.136 308.996L211.773 307.746L231.136 288.363L250.5 268.979L250.766 296.14C250.913 311.078 250.852 323.481 250.631 323.703ZM294.049 310.185C285.074 312.391 272.732 317.339 266.912 321.064C264.389 322.679 262.027 324 261.662 324C261.298 324 261 311.517 261 296.259V268.519L280.998 288.498L300.996 308.477L294.049 310.185ZM215.419 319.501C224.512 321.427 239.444 328.767 245.594 334.333L250.5 338.773L250.794 367.935L251.087 397.097L243.794 391.2C223.954 375.159 191.6 361.557 168.085 359.371L160.823 358.696L180.161 339.265C190.798 328.578 200.4 319.45 201.5 318.98C204.42 317.734 207.651 317.855 215.419 319.501ZM331.694 339.218C342.862 350.338 352 359.788 352 360.218C352 360.648 349.637 361.007 346.75 361.016C340.736 361.034 325.54 364.046 316 367.111C299.158 372.523 277.458 383.842 266.392 392.989L261.5 397.032L261.234 369.497C261.014 346.711 261.225 341.466 262.455 339.088C266.79 330.704 291.78 319.192 305.944 319.053L311.389 319L331.694 339.218ZM182 372.462C210.702 379.787 241.424 398.175 248.422 412.219C250.967 417.327 251 417.685 251 440.295V463.198L243.509 456.202C230.036 443.619 210.315 431.31 188.961 422.153C166.569 412.551 143.894 406.593 125.038 405.357L114.836 404.689L129.668 389.776C137.826 381.574 145.785 373.93 147.355 372.789C152.565 369.003 167.881 368.858 182 372.462ZM361.568 372.473C365.889 373.764 368.604 376.055 383.489 390.973L400.478 408H390.29C353.166 408 294.345 431.875 267.091 458.006C264.226 460.753 261.684 463 261.441 463C261.199 463 261.01 452.762 261.022 440.25C261.047 413.849 261.329 412.724 270.068 404.122C284.543 389.873 315.847 375.943 343 371.666C348.834 370.747 356.975 371.101 361.568 372.473Z" fill="white"/>
</svg>
